<?xml version="1.0" encoding="utf-8"?>
<!-- Generator: Adobe Illustrator 27.9.0, SVG Export Plug-In . SVG Version: 6.00 Build 0)  -->
<svg version="1.1" id="Layer_1" xmlns="http://www.w3.org/2000/svg" xmlns:xlink="http://www.w3.org/1999/xlink" x="0px" y="0px"
	 viewBox="0 0 573 183.54" style="enable-background:new 0 0 573 183.54;" xml:space="preserve">
<style type="text/css">
	.st0{fill:#040404;}
</style>
<g>
	<path class="st0" d="M397.87,0.35c1.42-0.65,2.99-0.21,4.48-0.11c0.01,1.38,0.98,3.31-0.77,3.99c-4.34,2.78-8.57,5.89-13.4,7.78
		c-7.18,2.41-14.56,4.2-22,5.58c-15.82,3.99-32.64,5.1-47.41,12.53c-13.04,6.31-21.85,18.75-27.1,31.9
		c-4.57,7.99-6.66,17.02-8.78,25.9c-1.12,7.51-2.16,15.14-1.47,22.75c0.66,2.38,3.27,4.07,5.73,3.57c2.33-2.75,5.2-5.01,8.76-5.87
		c0.6-0.04,1.81-0.12,2.42-0.17c2.93,1.46,4.29,6.5,3.97,9.6c-2.54-0.63-1.79-1.72-0.23-2.32c0.27,2.72,5.86,5.49,8.42,3.34
		c3.62-2.57,6.91-5.59,10.33-8.43c6.35-4.8,14.09-8.3,22.09-9.03c5.54,0.05,11.36,1.1,16.05,4.2c3.77,2.3,3.12,7.26,2.54,11
		c-1.43,4.36-5.64,7.04-9.62,8.83c-2.32,0.89-3.82,2.92-5.06,4.96c21.06,0.51,42.15,0.08,63.22,0.22c54.32,0,108.63,0,162.95,0
		c0,0.75,0,2.25,0,3c-191,0-382,0-573,0c0-0.75,0-2.25,0-3c69.61-0.01,139.23,0.02,208.84-0.01c-0.88-1.29-1.43-2.63-0.85-4.25
		c2.17-1.88,3.74-2.98,5.74-4.44c0.8-3.02,0.09-2.48-0.43-4.53c-4.09-1.74-8.69-3.03-10.53-6.61c-0.51-1.4-0.13-1.99-0.05-2.34
		c1.15-4,5.37-5.83,9.24-6.08c4.69-0.17,7.88,0.11,14.22,2.29c7.14,1.71,7.99,7.18,10.1,12.17c0.5,3.21,1.17,7.64,2.3,13.77
		c3.01,0.04,6.03,0.04,9.04-0.01c-0.15-13.76,1.86-27.53,4.99-40.91c2.87-15.02,10.32-28.63,18.01-41.66
		c5.99-8.77,13.52-16.79,23.06-21.7c12.16-7.55,25.9-12.82,40.22-14c6.63-1.27,13.39-1.62,19.99-3.04
		c8.71-1.54,17.68-1.24,26.27-3.52C386.11,4.08,392.09,2.52,397.87,0.35z"/>
	<path class="st0" d="M187.75,15.1c1.16-1.79,1.97-0.66,2.24-0.27c1.72,3,3.57,6.11,6.51,8.08c4.32,3.04,9.42,4.61,14.2,6.75
		c3.96,0.94,7.98,1.54,11.98,2.23l1.2,0.24c5.74,0.79,10.25,0.84,15.98,1.5c10.76-0.59,22.14-1.88,31.09-8.46
		c1.07-0.25,1.82,0.35,1.87,1.23c0.25,3.78-3.32,5.77-5.12,8.59c-2.45,3.68-4.55,7.57-6.78,11.39c-3.32,6.99-5.04,14.59-6.68,22.11
		c-0.56,0.36-0.3,0.97-2.25,1.45c-2.17-3.8-2.95-8.11-4.22-12.25c-1.32-4.42-5.2-7.87-9.75-8.63c-5.97-0.84-12.11-0.94-17.87-2.9
		c-6.24-2.22-11.76-5.68-17.25-9.65c-5.15-4.25-11.23-7.77-14.71-13.66C186.7,20.52,187.23,17.65,187.75,15.1z"/>
	<path class="st0" d="M304.4,102.21c2.29-3.86,9.29-6.49,10.1-2.99c0.5,2.22-5.81,7.35-8.94,6.54
		C303.85,104.82,303.96,103.38,304.4,102.21z"/>
	<path class="st0" d="M23.07,144.28c6.83-1.99,14.08-0.36,20.49,2.31c-0.02,2-0.01,4,0.01,6c-6.24-4.64-15.45-7.49-22.49-2.94
		c-7.24,5.36-7.58,16.65-3.31,23.97c4.33,6.98,13.89,6.86,20.7,4.05c0-3.4,0-6.8,0.02-10.2c-3.34-0.04-6.68-0.04-10.01-0.03
		c-0.01-1.34-0.01-2.67-0.01-4c5.04,0.02,10.08-0.06,15.12,0.06c-0.1,5.49-0.01,10.98-0.07,16.47c-6.13,2.54-12.94,4.66-19.58,2.86
		c-5.22-0.91-9.95-4.38-12.1-9.27c-2.33-5.43-2.6-11.66-1.04-17.34C12.41,150.46,17.21,145.66,23.07,144.28z"/>
	<path class="st0" d="M121.62,147.11c7.12-5.38,17.04-4.29,24.62-0.47c-0.03,1.96-0.04,3.93-0.05,5.9
		c-4.54-3.64-10.47-6.19-16.35-4.77c-5.34,1.16-8.84,6.34-9.45,11.55c-0.98,6.36,0.02,14.02,5.59,18.07
		c6.41,4.12,14.88,1.69,20.23-3.1c-0.01,1.96-0.01,3.92-0.01,5.89c-6.16,2.93-13.38,4.52-20.01,2.18
		c-6.41-1.92-10.4-8.37-11.1-14.77C114.16,160.35,115.53,151.85,121.62,147.11z"/>
	<path class="st0" d="M282.33,146.77c6.58-5.16,15.86-3.63,23.12-0.84c1.07,1.94,0.24,4.49,0.51,6.66
		c-3.59-3.1-8.17-5.19-12.97-5.19c-3.09-0.11-6.51,0.93-8.34,3.57c-1.53,2.51-1.02,6.61,1.87,7.92c5.86,2.56,13.1,1.47,18.24,5.76
		c4.68,4.47,3.02,12.88-2.33,16.11c-7.26,4.54-16.55,2.79-24.07-0.18c-0.02-2.1-0.04-4.2-0.07-6.29c5.41,4.15,12.91,6.71,19.57,4.2
		c4.18-1.17,6.09-7.56,2.5-10.37c-5.6-3.24-12.91-1.7-18.2-5.71C277.23,158.73,277.36,150.37,282.33,146.77z"/>
	<path class="st0" d="M456.3,146.79c6.59-5.18,15.91-3.66,23.17-0.84c1.03,1.95,0.24,4.47,0.49,6.64
		c-4.96-4.31-12.48-6.91-18.72-3.93c-4.02,1.64-4.79,8.19-0.77,10.21c5.86,2.59,13.11,1.48,18.27,5.76
		c4.73,4.49,3.03,12.96-2.37,16.18c-7.27,4.48-16.52,2.73-24.02-0.23c-0.01-2.1-0.03-4.19-0.06-6.29
		c5.43,4.16,12.96,6.73,19.62,4.18c4.15-1.19,6.02-7.55,2.46-10.34c-5.6-3.26-12.92-1.7-18.22-5.72
		C451.24,158.73,451.36,150.4,456.3,146.79z"/>
	<path class="st0" d="M52.07,144.44c1.67,0,3.33,0,5,0c0,11.33,0,22.66,0,34c6.29,0,12.58,0,18.87,0c0,1.33,0,2.66,0.01,4
		c-7.96,0-15.92,0-23.88,0C52.07,169.77,52.07,157.11,52.07,144.44z"/>
	<g>
		<path class="st0" d="M90.21,144.52c2.29-0.08,4.58-0.09,6.88-0.09c4.53,12.69,9.14,25.35,13.79,38c-1.82,0-3.64-0.02-5.46-0.06
			c-1.19-3.64-2.51-7.24-3.71-10.88c-5.27-0.02-10.54-0.18-15.81,0.04c-2.07,3.15-2.71,7.34-4.2,10.91c-1.73,0-3.47,0-5.2,0
			C81.1,169.81,85.79,157.21,90.21,144.52z M93.61,148.87c-2.26,6.17-4.42,12.38-6.66,18.55c4.4,0.03,8.81,0.02,13.21,0.02
			C98.01,161.24,95.77,155.07,93.61,148.87z"/>
	</g>
	<path class="st0" d="M151.47,144.44c4.96,0,9.91,0,14.87,0c0,1.33,0,2.65,0,3.98c-1.66,0.02-3.31,0.04-4.96,0.07
		c0.05,9.97,0.04,19.94,0,29.91c1.65,0.02,3.3,0.04,4.96,0.06c0,1.32,0,2.65,0,3.98c-4.96,0-9.91,0-14.87,0c0-1.34,0-2.67,0-4
		c1.62,0,3.24,0,4.87,0c0-10,0-20,0-30c-1.63,0-3.25,0-4.87,0C151.47,147.1,151.47,145.77,151.47,144.44z"/>
	<g>
		<path class="st0" d="M184.21,144.52c2.29-0.08,4.58-0.09,6.88-0.09c4.53,12.69,9.15,25.35,13.79,38.01
			c-1.82-0.01-3.64-0.03-5.46-0.07c-1.19-3.65-2.51-7.25-3.72-10.89c-5.42-0.04-10.85-0.15-16.27,0.07
			c-1.18,3.65-2.5,7.26-3.73,10.89c-1.74,0-3.47,0-5.2,0C175.11,169.81,179.79,157.21,184.21,144.52z M187.61,148.87
			c-2.26,6.17-4.42,12.38-6.66,18.56c4.4,0.02,8.81,0.01,13.21,0.01C192.01,161.24,189.77,155.07,187.61,148.87z"/>
	</g>
	<g>
		<path class="st0" d="M211.07,144.44c7.04,0.55,15.04-1.68,21.24,2.67c6.46,5.08,3.53,16.48-4.1,18.81
			c4.55,5.65,9.38,11.08,14.17,16.53c-2.2-0.01-4.4-0.01-6.6,0c-4.3-4.96-8.41-10.09-12.74-15.02c-2.33,0.01-4.65,0.01-6.97,0.01
			c0,5,0,10,0,15c-1.67,0-3.34,0-5,0C211.07,169.77,211.07,157.11,211.07,144.44z M216.07,148.45c0,4.99,0,9.99,0,14.98
			c3.58-0.14,7.4,0.6,10.76-0.99c3.96-2.08,4.84-7.85,2.54-11.42C226.09,147.16,220.48,148.76,216.07,148.45z"/>
	</g>
	<path class="st0" d="M247.07,144.44c8.29,0,16.58,0,24.87,0c0,1.33,0,2.66,0,4c-6.62,0-13.25,0-19.87,0c0,3.67,0,7.33,0,11
		c6.62,0,13.25,0,19.87,0c0,1.33,0,2.66,0,4c-6.62,0-13.25,0-19.87,0c0,5,0,10,0,15c6.62,0,13.25,0,19.87,0c0,1.33,0,2.66,0,4
		c-8.29,0-16.58,0-24.87,0C247.07,169.77,247.07,157.11,247.07,144.44z"/>
	<g>
		<path class="st0" d="M333.07,144.44c7.97,0.24,16.64-1.21,23.84,3.09c11.17,6.91,10.61,25.92-0.85,32.27
			c-7.05,3.83-15.32,2.35-22.99,2.64C333.07,169.77,333.07,157.11,333.07,144.44z M338.07,148.45c0,9.99,0,19.99,0,29.98
			c5.04-0.01,10.44,0.5,15.05-2c3.68-1.9,6.03-5.78,6.39-9.86c0.65-5.28-0.08-11.62-4.73-14.97
			C350.02,147.93,343.72,148.38,338.07,148.45z"/>
	</g>
	<path class="st0" d="M373.07,144.44c8.29,0,16.58,0,24.87,0c-0.01,1.33-0.01,2.66,0,4c-6.63,0-13.25,0-19.87,0c0,3.67,0,7.33,0,11
		c6.62,0,13.24,0,19.87,0c-0.01,1.33-0.01,2.66,0,4c-6.63,0-13.25,0-19.87,0c0,5,0,10,0,15c6.62,0,13.24,0,19.87,0
		c-0.01,1.33-0.01,2.66,0,4c-8.29,0-16.58,0-24.87,0C373.07,169.77,373.07,157.11,373.07,144.44z"/>
	<path class="st0" d="M406.07,144.44c1.66,0,3.33,0,5,0c0,11.33,0,22.66,0,34c6.29,0,12.58,0,18.87,0c-0.01,1.33-0.01,2.66,0,4
		c-7.96,0-15.91,0-23.87,0C406.07,169.77,406.07,157.11,406.07,144.44z"/>
	<path class="st0" d="M488.48,144.44c1.63,0,3.28,0,4.93,0c0.01,8.02-0.03,16.04,0,24.06c0,3.09,0.61,6.41,2.84,8.71
		c4.91,4.41,15,2.49,15.86-4.79c0.85-9.28,0.12-18.66,0.36-27.98c1.64,0,3.28,0,4.94,0c-0.04,8.31,0.06,16.63-0.04,24.94
		c-0.04,4.97-2.18,10.42-6.95,12.58c-5.32,2.29-12.01,2.18-16.86-1.18c-3.87-2.79-5.02-7.88-5.08-12.38
		C488.45,160.41,488.49,152.42,488.48,144.44z"/>
	<g>
		<path class="st0" d="M527.07,144.44c6.6,0.45,13.75-1.29,19.91,1.79c5.27,2.64,6.04,9.86,3.37,14.61
			c-1.36,2.45-3.81,3.96-6.21,5.23c4.79,5.42,9.4,11,14.24,16.38c-2.21-0.01-4.41-0.01-6.61-0.01c-4.29-4.97-8.41-10.08-12.74-15.01
			c-2.32,0.01-4.64,0.01-6.96,0.01c0,5,0,10,0,15c-1.68,0-3.34,0-5,0C527.07,169.77,527.07,157.11,527.07,144.44z M532.07,148.45
			c0,4.99,0,9.99,0,14.98c3.56-0.14,7.37,0.59,10.72-0.97c4-2.07,4.9-7.9,2.55-11.47C542.05,147.17,536.47,148.76,532.07,148.45z"/>
	</g>
</g>
</svg>
